<svg width="35" height="35" viewBox="0 0 35 35" fill="none" xmlns="http://www.w3.org/2000/svg">
<path d="M17.5 26.9792C17.5024 27.7437 17.2636 28.4896 16.8178 29.1106C16.3719 29.7317 15.7415 30.1964 15.0164 30.4387C14.2912 30.6809 13.5082 30.6884 12.7785 30.46C12.0488 30.2317 11.4098 29.7791 10.9521 29.1667H10.9375C10.3758 29.1733 9.82034 29.0484 9.31556 28.802C8.81079 28.5555 8.37071 28.1943 8.03054 27.7473C7.69038 27.3002 7.45957 26.7798 7.35659 26.2275C7.25362 25.6753 7.28133 25.1067 7.4375 24.5671C6.66339 24.328 5.97153 23.8772 5.44005 23.2657C4.90856 22.6541 4.5586 21.9062 4.42969 21.1063C4.30077 20.3064 4.39803 19.4864 4.71048 18.7389C5.02293 17.9914 5.53813 17.3461 6.19792 16.8758C5.80697 16.0736 5.72775 15.1547 5.97563 14.2974C6.22351 13.4401 6.78083 12.7053 7.53959 12.2354C7.34419 11.7373 7.26188 11.202 7.29861 10.6682C7.33534 10.1344 7.4902 9.61547 7.75198 9.14883C8.01377 8.68219 8.37595 8.27953 8.81236 7.96996C9.24876 7.66038 9.74849 7.45162 10.2754 7.35875C10.3743 6.82538 10.591 6.3208 10.9096 5.88178C11.2282 5.44277 11.6408 5.08039 12.1173 4.82106C12.5937 4.56174 13.122 4.412 13.6637 4.38277C14.2054 4.35353 14.7467 4.44554 15.2483 4.65208C15.9148 4.9279 16.4845 5.39519 16.8853 5.99485C17.2861 6.5945 17.5 7.29956 17.5 8.02083M17.5 26.9792V8.02083M17.5 26.9792C17.4976 27.7437 17.7364 28.4896 18.1823 29.1106C18.6281 29.7317 19.2585 30.1964 19.9836 30.4387C20.7088 30.6809 21.4919 30.6884 22.2215 30.46C22.9512 30.2317 23.5903 29.7791 24.0479 29.1667H24.0625C24.6246 29.174 25.1805 29.0496 25.6859 28.8035C26.1912 28.5573 26.6319 28.1962 26.9725 27.749C27.3132 27.3019 27.5444 26.7812 27.6476 26.2286C27.7508 25.6761 27.7232 25.107 27.5669 24.5671C28.3407 24.3274 29.0321 23.8763 29.5631 23.2645C30.0941 22.6527 30.4436 21.9047 30.572 21.1049C30.7005 20.3051 30.6028 19.4853 30.2901 18.738C29.9773 17.9907 29.4619 17.3457 28.8021 16.8758C29.1929 16.0734 29.2719 15.1544 29.0237 14.2971C28.7756 13.4397 28.218 12.705 27.459 12.2354C27.6544 11.7374 27.7367 11.2022 27.7001 10.6685C27.6634 10.1348 27.5087 9.61592 27.2471 9.14931C26.9854 8.68269 26.6234 8.28001 26.1872 7.97035C25.751 7.6607 25.2514 7.4518 24.7246 7.35875C24.5701 6.52193 24.1277 5.76552 23.4741 5.22058C22.8204 4.67564 21.9968 4.37651 21.1458 4.375C20.1789 4.375 19.2516 4.75911 18.5678 5.44284C17.8841 6.12657 17.5 7.0539 17.5 8.02083M5.83334 15.3125C5.83332 14.7098 5.98271 14.1165 6.26814 13.5857C6.55357 13.0549 6.96615 12.6031 7.46894 12.2708C7.97174 11.9385 8.54908 11.736 9.14929 11.6815C9.74951 11.627 10.3539 11.7221 10.9083 11.9583M10.5 24.4285C9.50983 24.8621 8.39423 24.9137 7.36824 24.5735C6.34226 24.2333 5.47855 23.5253 4.94361 22.586C4.40867 21.6467 4.24037 20.5427 4.47117 19.4867C4.70197 18.4307 5.31553 17.4975 6.19355 16.8671M29.1667 15.3125C29.1668 14.7096 29.0174 14.1161 28.7319 13.5851C28.4464 13.0542 28.0337 12.6023 27.5307 12.2699C27.0277 11.9376 26.4501 11.7352 25.8497 11.6808C25.2493 11.6264 24.6447 11.7218 24.0902 11.9583M24.4985 24.4285C25.4889 24.8632 26.6051 24.9157 27.6318 24.5759C28.6585 24.236 29.523 23.5279 30.0584 22.5882C30.5937 21.6485 30.7621 20.5438 30.5309 19.4873C30.2997 18.4308 29.6854 17.4973 28.8065 16.8671" stroke="#577853" stroke-width="2" stroke-linecap="round" stroke-linejoin="round"/>
</svg>
