<svg width="20" height="20" viewBox="0 0 20 20" fill="none" xmlns="http://www.w3.org/2000/svg">
<path d="M2.5 4.375V14.375C2.5 14.7065 2.6317 15.0245 2.86612 15.2589C3.10054 15.4933 3.41848 15.625 3.75 15.625H16.25C16.5815 15.625 16.8995 15.4933 17.1339 15.2589C17.3683 15.0245 17.5 14.7065 17.5 14.375V4.375H2.5ZM2.5 3.125H17.5C17.8315 3.125 18.1495 3.2567 18.3839 3.49112C18.6183 3.72554 18.75 4.04348 18.75 4.375V14.375C18.75 15.038 18.4866 15.6739 18.0178 16.1428C17.5489 16.6116 16.913 16.875 16.25 16.875H3.75C3.08696 16.875 2.45107 16.6116 1.98223 16.1428C1.51339 15.6739 1.25 15.038 1.25 14.375V4.375C1.25 4.04348 1.3817 3.72554 1.61612 3.49112C1.85054 3.2567 2.16848 3.125 2.5 3.125Z" fill="#DBE3CE"/>
<path d="M17.6562 4.375L12.8225 9.9C12.4705 10.3024 12.0366 10.6248 11.5498 10.8458C11.063 11.0667 10.5346 11.181 10 11.181C9.46541 11.181 8.937 11.0667 8.45021 10.8458C7.96341 10.6248 7.52947 10.3024 7.1775 9.9L2.34375 4.375H17.6562ZM4.005 4.375L8.1175 9.07625C8.35215 9.34456 8.64146 9.5596 8.96603 9.70693C9.29061 9.85426 9.64293 9.93048 9.99937 9.93048C10.3558 9.93048 10.7081 9.85426 11.0327 9.70693C11.3573 9.5596 11.6466 9.34456 11.8813 9.07625L15.995 4.375H4.005Z" fill="white"/>
</svg>
