<svg width="30" height="30" viewBox="0 0 30 30" fill="none" xmlns="http://www.w3.org/2000/svg">
<path d="M24.375 15.715L15 25L5.625 15.715C5.00663 15.1132 4.51956 14.39 4.19444 13.5908C3.86932 12.7915 3.7132 11.9337 3.73592 11.0711C3.75864 10.2086 3.95971 9.36015 4.32645 8.57915C4.69319 7.79815 5.21767 7.10154 5.86686 6.5332C6.51605 5.96486 7.27588 5.53709 8.09852 5.27683C8.92115 5.01657 9.78876 4.92946 10.6467 5.02098C11.5047 5.1125 12.3344 5.38067 13.0836 5.80861C13.8328 6.23655 14.4853 6.81498 15 7.50748C15.5169 6.82 16.1702 6.24663 16.9189 5.82323C17.6676 5.39984 18.4956 5.13554 19.3512 5.04688C20.2067 4.95822 21.0714 5.0471 21.891 5.30797C22.7106 5.56883 23.4675 5.99607 24.1144 6.56293C24.7613 7.12979 25.2843 7.82408 25.6505 8.60234C26.0168 9.3806 26.2184 10.2261 26.2429 11.0859C26.2673 11.9456 26.1141 12.8012 25.7927 13.599C25.4713 14.3969 24.9886 15.1198 24.375 15.7225" stroke="#577853" stroke-width="2" stroke-linecap="round" stroke-linejoin="round"/>
</svg>
