<svg width="50" height="41" viewBox="0 0 50 41" fill="none" xmlns="http://www.w3.org/2000/svg">
<path d="M35.8421 39.7499C28.575 39.7499 22.6842 35.421 22.6842 30.0808C22.6842 24.7406 28.575 20.4118 35.8421 20.4118C43.1092 20.4118 49 24.7406 49 30.0808C49 31.6279 48.5053 33.0898 47.6276 34.3864C47.3934 34.7307 47.3158 35.1242 47.4513 35.4964L48.2342 37.6488C48.3117 37.8618 48.3117 38.086 48.234 38.299C48.1563 38.512 48.0038 38.7062 47.7917 38.8621C47.5796 39.0181 47.3154 39.1303 47.0256 39.1875C46.7358 39.2447 46.4307 39.2449 46.1408 39.1881L43.2118 38.6118C42.7034 38.5174 42.1656 38.5632 41.7 38.7404C39.8803 39.4062 37.8748 39.7518 35.8421 39.7499Z" stroke="black" stroke-width="1.5"/>
<path d="M35.8421 33.9484V26.2132M41.1053 32.0146V28.147M30.579 32.0146V28.147" stroke="black" stroke-width="1.5" stroke-linecap="round"/>
<path d="M16 29.3333C23.364 29.3333 29.3333 23.364 29.3333 16C29.3333 8.636 23.364 2.66666 16 2.66666C8.63601 2.66666 2.66667 8.636 2.66667 16C2.66667 18.1333 3.16801 20.1493 4.05734 21.9373C4.29467 22.412 4.37334 22.9547 4.23601 23.468L3.44267 26.436C3.3641 26.7297 3.36417 27.0389 3.44288 27.3326C3.52159 27.6263 3.67616 27.8941 3.89109 28.1092C4.10602 28.3243 4.37374 28.479 4.66737 28.5579C4.96101 28.6368 5.27023 28.6371 5.564 28.5587L8.532 27.764C9.04718 27.6338 9.59219 27.6969 10.064 27.9413C11.9079 28.8594 13.9402 29.336 16 29.3333Z" stroke="black" stroke-width="1.5"/>
<path d="M16 21.3333V10.6667M10.6667 18.6667V13.3333M21.3333 18.6667V13.3333" stroke="black" stroke-width="1.5" stroke-linecap="round"/>
</svg>
