<svg width="30" height="30" viewBox="0 0 30 30" fill="none" xmlns="http://www.w3.org/2000/svg">
<path d="M8.75 26.25H21.25M15 26.25C17.9837 26.25 20.8452 25.0647 22.955 22.955C25.0647 20.8452 26.25 17.9837 26.25 15H3.75C3.75 17.9837 4.93526 20.8452 7.04505 22.955C9.15483 25.0647 12.0163 26.25 15 26.25Z" stroke="#577853" stroke-width="2" stroke-linecap="round" stroke-linejoin="round"/>
<path d="M14.225 15C13.4679 15.0071 12.7362 14.7276 12.1766 14.2178C11.6169 13.7079 11.2708 13.0053 11.2075 12.2508C11.1443 11.4964 11.3686 10.746 11.8355 10.15C12.3024 9.55404 12.9773 9.15665 13.725 9.03752C13.6053 8.50781 13.6316 7.95553 13.8012 7.43961C13.9707 6.92369 14.2772 6.46346 14.6878 6.10803C15.0984 5.7526 15.5978 5.5153 16.1326 5.42143C16.6675 5.32756 17.2179 5.38064 17.725 5.57502C17.947 5.22548 18.239 4.92568 18.5826 4.69452C18.9262 4.46336 19.3139 4.30583 19.7214 4.23186C20.1288 4.15788 20.5472 4.16906 20.9501 4.26469C21.353 4.36033 21.7317 4.53834 22.0625 4.78752C22.6394 4.33405 23.3626 4.10778 24.0951 4.15152C24.8277 4.19525 25.5187 4.50596 26.0376 5.02486C26.5565 5.54376 26.8673 6.23485 26.911 6.96738C26.9547 7.69991 26.7285 8.42307 26.275 9.00002C26.5572 9.37494 26.7476 9.81083 26.8308 10.2727C26.9139 10.7345 26.8876 11.2095 26.7539 11.6593C26.6201 12.1091 26.3827 12.5213 26.0608 12.8627C25.7388 13.2041 25.3412 13.4652 24.9 13.625C25.0145 14.0749 25.0273 14.5446 24.9375 15M16.25 15L21.25 10" stroke="#577853" stroke-width="2" stroke-linecap="round" stroke-linejoin="round"/>
<path d="M13.625 9.06252C12.9394 8.3316 12.0494 7.82419 11.0712 7.60642C10.093 7.38865 9.07187 7.47062 8.14092 7.84166C7.20997 8.21269 6.41238 8.85557 5.85212 9.6865C5.29187 10.5174 4.99492 11.4979 5 12.5C5 13.4125 5.25 14.2625 5.675 15" stroke="#577853" stroke-width="2" stroke-linecap="round" stroke-linejoin="round"/>
</svg>
